<?xml version="1.0" encoding="utf-8"?>
<!-- Generator: Adobe Illustrator 22.1.0, SVG Export Plug-In . SVG Version: 6.00 Build 0)  -->
<svg version="1.1" id="Layer_1" xmlns="http://www.w3.org/2000/svg" xmlns:xlink="http://www.w3.org/1999/xlink" x="0px" y="0px"
	 viewBox="0 0 692.9 535.7" style="enable-background:new 0 0 692.9 535.7;" xml:space="preserve">
<style type="text/css">
	.st0{fill:#EEEEEE;}
</style>
<path class="st0" d="M672.5,65.8l-0.1-0.1c4.8-5.9,7.7-13.3,7.7-21.5c0-19-15.4-34.4-34.4-34.4c-11.3,0-21.2,5.5-27.4,13.9l-0.1,0
	L251.7,361.2L84.1,274.8c-0.9-0.5-1.8-1-2.8-1.4l-0.9-0.5l-0.3-0.1c-1.4-0.6-2.9-1.2-4.4-1.7l-0.6-0.2v0c-4.6-1.5-9.5-2.3-14.6-2.3
	c-26.4,0-47.8,21.4-47.8,47.8c0,14.8,6.8,28.1,17.4,36.9l0,0l0,0c0,0,0,0,0,0l180.2,150.3c3.4,3.5,7.2,6.6,11.3,9.4l0,0l0,0
	c11.9,8.1,26.3,12.8,41.8,12.8c20.5,0,39.1-8.3,52.6-21.7l0.2,0.2l2.3-2.8c2-2.2,3.9-4.5,5.6-6.9L672.5,65.8z"/>
</svg>
