<?xml version="1.0" encoding="utf-8"?>
<!-- Generator: Adobe Illustrator 22.1.0, SVG Export Plug-In . SVG Version: 6.00 Build 0)  -->
<svg version="1.1" id="Layer_1" xmlns="http://www.w3.org/2000/svg" xmlns:xlink="http://www.w3.org/1999/xlink" x="0px" y="0px"
	 viewBox="0 0 256 287" style="enable-background:new 0 0 256 287;" xml:space="preserve">
<style type="text/css">
	.st0{fill:#FFFFFF;}
</style>
<g>
	<g>
		<path class="st0" d="M238,215.4l-51.3,29.3L134.4,275v-37.6l35.7-21.1l34.8-20.2L238,215.4z M120.7,275l-51.3-30.2l-52.2-29.3
			l33-19.2l35.7,20.2l34.8,21.1V275z M10.7,203.5V144V83.5l33,19.2V144v40.3L10.7,203.5z M17.1,72.5l52.2-30.2L120.7,12v38.5
			L85.8,70.6L50.1,90.8L17.1,72.5z M134.4,12l52.2,30.2L238,72.5l-33,18.3l-34.8-20.2l-35.7-20.2V12z M245.3,83.5V144v59.6l-33-19.2
			V144v-41.2L245.3,83.5z"/>
		<path class="st0" d="M196.7,191.6L165.6,209l0,0l-31.2,18.3V220l27.5-16.5l0,0l28.4-15.6L196.7,191.6z M120.7,227.3L89.5,209
			l-30.2-17.4l5.5-3.7l28.4,15.6l27.5,16.5V227.3z M51.9,179.7V144l0,0v-35.7l6.4,3.7V144l0,0V176L51.9,179.7z M59.3,96.3L89.5,78
			l0,0l31.2-17.4v7.3L93.2,83.5l0,0L64.8,100L59.3,96.3z M134.4,60.6L165.6,78l31.2,18.3l-6.4,3.7l-28.4-16.5l-27.5-15.6V60.6z
			 M203.1,108.2V144l0,0v35.7l-6.4-3.7V144l0,0v-32.1L203.1,108.2z"/>
	</g>
</g>
</svg>
