<?xml version="1.0" encoding="utf-8"?>
<!-- Generator: Adobe Illustrator 22.1.0, SVG Export Plug-In . SVG Version: 6.00 Build 0)  -->
<svg version="1.1" id="Layer_1" xmlns="http://www.w3.org/2000/svg" xmlns:xlink="http://www.w3.org/1999/xlink" x="0px" y="0px"
	 viewBox="0 0 275 275" style="enable-background:new 0 0 275 275;" xml:space="preserve">
<style type="text/css">
	.st0{fill:#F74643;}
</style>
<g>
	<g>
		<path class="st0" d="M268,144.6C264.2,213.9,207.3,268,138,268c-16.1,0-30.4-2.8-44.6-7.6c8.5,1.9,17.1,2.8,25.6,2.8
			c59.8,0,109.1-48.4,109.1-109.1c0-2.8,0-6.6,0-9.5H268z"/>
		<path class="st0" d="M138,7c0.9,0,0.9,0,1.9,0v39.9c-6.6-0.9-13.3-1.9-20.9-1.9C58.3,45,9.8,93.4,9.8,154.1c0,3.8,0,7.6,0,11.4
			C7.9,156,7,147.5,7,138C7,65.8,65.8,7,138,7z"/>
		<path class="st0" d="M146.5,56.4c38,10.4,66.4,42.7,73.1,81.6h-19c-5.7-28.5-26.6-52.2-54.1-61.7V56.4z"/>
		<path class="st0" d="M119,52.6c7.6,0,14.2,0.9,20.9,1.9v19.9c-6.6-1.9-13.3-2.8-20.9-2.8c-45.6,0-83.5,37-83.5,82.6
			s38,83.5,83.5,83.5s82.6-38,82.6-83.5c0-2.8,0-6.6,0-9.5h18c0.9,2.8,0.9,6.6,0.9,9.5c0,56-45.6,101.6-101.6,101.6
			S17.4,210.1,17.4,154.1S63,52.6,119,52.6z"/>
	</g>
</g>
</svg>
