<?xml version="1.0" encoding="utf-8"?>
<!-- Generator: Adobe Illustrator 22.1.0, SVG Export Plug-In . SVG Version: 6.00 Build 0)  -->
<svg version="1.1" id="Layer_1" xmlns="http://www.w3.org/2000/svg" xmlns:xlink="http://www.w3.org/1999/xlink" x="0px" y="0px"
	 viewBox="0 0 66.9 69.2" style="enable-background:new 0 0 66.9 69.2;" xml:space="preserve">
<style type="text/css">
	.st0{fill:#FFFFFF;}
</style>
<path class="st0" d="M49.8,47.6l14.5,14.5c1.2,1.2,1.2,3.2,0,4.5c-1.2,1.2-3.2,1.2-4.5,0L45,51.8c-4.5,3.2-9.9,5-15.8,5
	C14,56.8,1.7,44.5,1.7,29.3S14,1.8,29.2,1.8s27.5,12.3,27.5,27.5C56.7,36.3,54.1,42.7,49.8,47.6z M29.2,50.8
	c11.9,0,21.5-9.6,21.5-21.5S41.1,7.8,29.2,7.8S7.7,17.4,7.7,29.3S17.4,50.8,29.2,50.8z"/>
</svg>
